SplineFontDB: 3.2
FontName: Untitled1
FullName: Untitled1
FamilyName: Untitled1
Weight: Regular
Copyright: Copyright (c) 2023, revan
UComments: "2023-7-15: Created with FontForge (http://fontforge.org)"
Version: 001.000
ItalicAngle: 0
UnderlinePosition: -100
UnderlineWidth: 50
Ascent: 800
Descent: 200
InvalidEm: 0
LayerCount: 2
Layer: 0 0 "Back" 1
Layer: 1 0 "Fore" 0
XUID: [1021 880 -1901079322 30316]
OS2Version: 0
OS2_WeightWidthSlopeOnly: 0
OS2_UseTypoMetrics: 1
CreationTime: 1689414323
ModificationTime: 1689575576
OS2TypoAscent: 0
OS2TypoAOffset: 1
OS2TypoDescent: 0
OS2TypoDOffset: 1
OS2TypoLinegap: 0
OS2WinAscent: 0
OS2WinAOffset: 1
OS2WinDescent: 0
OS2WinDOffset: 1
HheadAscent: 0
HheadAOffset: 1
HheadDescent: 0
HheadDOffset: 1
OS2Vendor: 'PfEd'
DEI: 91125
Encoding: ISO8859-1
UnicodeInterp: none
NameList: AGL For New Fonts
DisplaySize: -48
AntiAlias: 1
FitToEm: 0
WinInfo: 0 38 13
BeginChars: 256 36

StartChar: a
Encoding: 97 97 0
Width: 1000
Flags: H
LayerCount: 2
Back
Fore
SplineSet
63 -45 m 1053
EndSplineSet
EndChar

StartChar: b
Encoding: 98 98 1
Width: 1000
Flags: H
LayerCount: 2
Back
Fore
SplineSet
252 -198 m 1
 282 -159 l 1
 33 816 l 5
 0 792 l 1
 252 -198 l 1
EndSplineSet
Validated: 9
EndChar

StartChar: c
Encoding: 99 99 2
Width: 1000
Flags: H
LayerCount: 2
Back
Fore
SplineSet
0 777 m 1
 48 801 l 25
 309 -180 l 5
 261 -195 l 25
 0 777 l 1
EndSplineSet
Validated: 1
EndChar

StartChar: d
Encoding: 100 100 3
Width: 1000
Flags: H
LayerCount: 2
Back
Fore
SplineSet
0 774 m 1
 33 801 l 1
 288 -186 l 5
 255 -207 l 1
 0 774 l 1
EndSplineSet
Validated: 1
EndChar

StartChar: e
Encoding: 101 101 4
Width: 1000
Flags: H
LayerCount: 2
Back
Fore
SplineSet
0 798 m 1
 45 789 l 1
 273 -201 l 1
 255 -195 l 5
 0 798 l 1
EndSplineSet
Validated: 1
EndChar

StartChar: g
Encoding: 103 103 6
Width: 1000
Flags: H
LayerCount: 2
Back
Fore
SplineSet
246 789 m 1
 288 795 l 1
 30 -198 l 5
 0 -189 l 1
 246 789 l 1
EndSplineSet
Validated: 1
EndChar

StartChar: h
Encoding: 104 104 7
Width: 1000
Flags: H
LayerCount: 2
Back
Fore
SplineSet
252 801 m 29
 300 789 l 1
 51 -195 l 1
 9 -165 l 5
 252 801 l 29
EndSplineSet
Validated: 1
EndChar

StartChar: i
Encoding: 105 105 8
Width: 1000
Flags: H
LayerCount: 2
Back
Fore
SplineSet
304 780 m 1
 260 812 l 5
 0 -176 l 1
 48 -204 l 1
 304 780 l 1
EndSplineSet
Validated: 9
EndChar

StartChar: j
Encoding: 106 106 9
Width: 1000
Flags: H
LayerCount: 2
Back
Fore
SplineSet
242 813 m 5
 293 795 l 1
 35 -192 l 1
 0 -192 l 1
 242 813 l 5
EndSplineSet
Validated: 1
EndChar

StartChar: l
Encoding: 108 108 11
Width: 1000
Flags: H
LayerCount: 2
Back
Fore
SplineSet
341 789 m 28
 339 803 356 827 365 816 c 24
 391 786 390 758 401 720 c 24
 419 656 431 620 440 555 c 24
 452 471 453 423 455 339 c 24
 456 303 456 281 449 246 c 24
 440 200 431 174 413 132 c 24
 390 76 380 43 344 -6 c 24
 311 -51 287 -74 239 -105 c 24
 168 -150 122 -168 44 -198 c 24
 25 -205 -21 -212 -7 -198 c 24
 26 -163 60 -162 101 -138 c 24
 132 -120 149 -109 179 -90 c 24
 210 -70 231 -62 257 -36 c 24
 301 9 328 34 356 90 c 24
 387 152 392 193 407 261 c 24
 416 303 420 329 419 372 c 24
 418 447 415 490 401 564 c 24
 384 653 354 699 341 789 c 28
EndSplineSet
Validated: 33
EndChar

StartChar: m
Encoding: 109 109 12
Width: 1000
Flags: H
LayerCount: 2
Back
Fore
SplineSet
1044 792 m 29
 1125 795 l 25
 1116 624 l 25
 1068 405 l 25
 945 153 l 25
 759 -27 l 25
 573 -120 l 25
 333 -192 l 25
 231 -195 l 25
 -3 -198 l 25
 -15 -138 l 25
 240 -123 l 25
 393 -102 l 25
 540 -48 l 25
 687 27 l 25
 813 144 l 25
 936 300 l 25
 1008 465 l 25
 1041 639 l 25
 1044 792 l 29
EndSplineSet
Validated: 1
EndChar

StartChar: n
Encoding: 110 110 13
Width: 1000
Flags: H
LayerCount: 2
Back
Fore
SplineSet
-12 735 m 29
 -18 804 l 25
 99 807 l 25
 192 804 l 25
 333 792 l 25
 564 723 l 25
 777 606 l 25
 942 438 l 25
 1023 303 l 25
 1086 141 l 25
 1113 -3 l 25
 1128 -195 l 25
 1044 -198 l 25
 1029 -30 l 25
 1002 135 l 25
 948 282 l 25
 879 396 l 25
 774 492 l 25
 660 591 l 25
 507 666 l 25
 351 705 l 25
 240 720 l 25
 -12 735 l 29
EndSplineSet
Validated: 1
EndChar

StartChar: o
Encoding: 111 111 14
Width: 1000
Flags: HW
LayerCount: 2
Back
Fore
SplineSet
-21 -193 m 1
 111 -196 l 25
 108 248 l 25
 354 377 l 25
 573 494 l 25
 786 617 l 25
 981 728 l 25
 1017 767 l 25
 1008 794 l 25
 837 806 l 25
 600 686 l 25
 429 578 l 25
 225 485 l 25
 45 374 l 1
 -18 329 l 29
 -21 -193 l 1
EndSplineSet
Validated: 9
EndChar

StartChar: p
Encoding: 112 112 15
Width: 1000
Flags: HW
LayerCount: 2
Back
Fore
SplineSet
-18 798 m 1
 111 807 l 5
 114 375 l 1
 297 258 l 1
 510 135 l 25
 708 24 l 25
 936 -96 l 25
 972 -132 l 25
 960 -189 l 25
 822 -186 l 25
 600 -69 l 25
 336 81 l 25
 99 213 l 1
 -18 288 l 1
 -18 798 l 1
EndSplineSet
Validated: 1
EndChar

StartChar: q
Encoding: 113 113 16
Width: 1000
Flags: H
LayerCount: 2
Back
Fore
SplineSet
0 -213 m 5
 0 -132 l 1
 189 -132 l 1
 321 -132 l 25
 369 63 l 25
 432 393 l 25
 507 729 l 25
 528 804 l 25
 606 801 l 25
 684 309 l 25
 732 -9 l 25
 783 165 l 25
 846 414 l 25
 933 426 l 25
 1044 87 l 25
 1128 -168 l 25
 1065 -213 l 25
 903 255 l 25
 828 3 l 25
 771 -198 l 25
 687 -204 l 25
 624 174 l 25
 558 609 l 25
 474 162 l 25
 414 -168 l 1
 378 -210 l 5
 245.96777492 -210.880344294 185.984227282 -213.189851996 0 -213 c 5
EndSplineSet
Validated: 33
EndChar

StartChar: r
Encoding: 114 114 17
Width: 1000
Flags: H
LayerCount: 2
Back
Fore
SplineSet
-12 -201 m 29
 -15 -153 l 25
 39 -150 l 25
 93 -126 l 25
 147 -96 l 25
 216 0 l 25
 288 168 l 25
 345 405 l 25
 372 573 l 25
 381 795 l 25
 444 801 l 25
 486 615 l 25
 522 447 l 25
 567 294 l 25
 621 528 l 25
 657 693 l 25
 675 786 l 25
 741 792 l 25
 777 516 l 25
 804 330 l 25
 849 504 l 25
 921 696 l 25
 972 756 l 25
 1080 813 l 25
 1083 753 l 25
 1008 726 l 25
 966 651 l 25
 912 495 l 25
 864 348 l 25
 834 174 l 25
 771 168 l 25
 750 348 l 25
 726 504 l 25
 714 615 l 25
 708 663 l 25
 645 372 l 25
 594 177 l 25
 528 168 l 25
 468 486 l 25
 426 633 l 25
 393 357 l 25
 345 168 l 25
 291 12 l 25
 228 -96 l 25
 138 -165 l 25
 63 -204 l 25
 -12 -201 l 29
EndSplineSet
Validated: 1
EndChar

StartChar: s
Encoding: 115 115 18
Width: 1000
Flags: H
LayerCount: 2
Back
Fore
SplineSet
-18 771 m 1
 42 816 l 1
 90 705 l 1
 195 450 l 1
 234 291 l 1
 249 210 l 1
 252 132 l 1
 255 0 l 1
 228 -123 l 1
 192 -189 l 1
 135 -204 l 1
 57 -150 l 1
 36 -60 l 1
 18 75 l 25
 45 315 l 25
 96 516 l 25
 165 705 l 25
 210 774 l 25
 231 792 l 25
 264 801 l 25
 327 801 l 1
 369 783 l 1
 417 714 l 5
 438 621 l 1
 456 456 l 1
 462 288 l 1
 465 72 l 1
 462 -90 l 1
 462 -195 l 1
 396 -189 l 1
 405 342 l 25
 399 462 l 25
 384 555 l 25
 360 678 l 25
 315 750 l 25
 267 762 l 25
 246 735 l 25
 198 657 l 25
 144 546 l 1
 120 396 l 1
 99 261 l 1
 81 114 l 1
 90 -18 l 1
 135 -126 l 1
 150 -153 l 1
 174 -102 l 25
 183 -6 l 25
 186 159 l 25
 171 297 l 25
 132 432 l 25
 78 582 l 25
 -18 771 l 1
EndSplineSet
Validated: 5
EndChar

StartChar: t
Encoding: 116 116 19
Width: 1000
Flags: HW
LayerCount: 2
Fore
SplineSet
-22 747 m 29
 35 813 l 25
 173 633 l 25
 281 426 l 25
 338 255 l 25
 353 126 l 25
 350 36 l 25
 329 -81 l 25
 302 -159 l 25
 248 -195 l 25
 176 -204 l 25
 110 -162 l 25
 47 -75 l 25
 32 27 l 25
 20 150 l 25
 41 273 l 25
 74 399 l 25
 134 531 l 25
 239 705 l 25
 344 783 l 25
 395 801 l 25
 431 804 l 25
 467 801 l 25
 497 786 l 25
 542 741 l 25
 605 642 l 25
 629 531 l 25
 647 414 l 25
 656 261 l 25
 659 27 l 25
 650 -177 l 25
 560 -183 l 25
 569 21 l 25
 575 243 l 25
 566 438 l 25
 539 579 l 25
 488 681 l 25
 446 711 l 25
 392 720 l 25
 356 699 l 25
 326 669 l 25
 272 597 l 25
 227 537 l 25
 176 417 l 25
 128 291 l 25
 116 213 l 25
 104 102 l 25
 122 -3 l 25
 173 -102 l 25
 209 -132 l 25
 245 -81 l 25
 260 -21 l 25
 272 99 l 25
 260 207 l 25
 245 285 l 25
 221 345 l 25
 182 435 l 25
 122 552 l 25
 -22 747 l 29
EndSplineSet
Validated: 5
EndChar

StartChar: u
Encoding: 117 117 20
Width: 1000
Flags: HW
LayerCount: 2
Fore
SplineSet
0 786 m 5
 20 813 l 1
 50 624 l 25
 80 387 l 25
 113 201 l 25
 140 3 l 25
 155 -87 l 25
 194 -21 l 25
 224 9 l 25
 260 30 l 25
 317 54 l 25
 380 60 l 1
 380 33 l 25
 341 27 l 1
 302 6 l 25
 260 -12 l 25
 215 -57 l 1
 164 -144 l 1
 125 -132 l 1
 0 786 l 5
EndSplineSet
Validated: 1
EndChar

StartChar: v
Encoding: 118 118 21
Width: 1000
Flags: HW
LayerCount: 2
Fore
SplineSet
0 -168 m 1
 53 -192 l 1
 254 666 l 25
 386 390 l 25
 446 381 l 25
 605 690 l 25
 728 390 l 1
 803 372 l 1
 965 696 l 1
 992 513 l 1
 1061 525 l 25
 992 795 l 1
 929 789 l 25
 770 486 l 1
 638 792 l 1
 584 786 l 1
 422 495 l 1
 278 786 l 1
 227 789 l 1
 0 -168 l 1
EndSplineSet
Validated: 9
EndChar

StartChar: w
Encoding: 119 119 22
Width: 1000
Flags: HW
LayerCount: 2
Fore
SplineSet
-16 -150 m 29
 26 -213 l 25
 128 -114 l 25
 221 -9 l 25
 281 129 l 25
 332 282 l 25
 368 435 l 25
 392 309 l 25
 395 201 l 25
 413 54 l 25
 437 -90 l 25
 452 -168 l 25
 539 -177 l 25
 587 60 l 25
 644 360 l 25
 671 555 l 25
 686 417 l 25
 707 240 l 25
 725 102 l 25
 767 -126 l 25
 767 -165 l 25
 848 -180 l 25
 902 114 l 25
 947 375 l 25
 968 537 l 25
 989 309 l 25
 1004 141 l 25
 1016 -21 l 25
 1025 -123 l 25
 1028 -165 l 25
 1119 -174 l 25
 1098 30 l 25
 1077 243 l 25
 1044 495 l 25
 1011 795 l 25
 933 792 l 25
 882 513 l 25
 834 174 l 25
 813 54 l 25
 792 216 l 25
 783 363 l 25
 759 546 l 25
 714 786 l 25
 636 798 l 25
 579 486 l 25
 534 222 l 25
 501 75 l 25
 477 267 l 25
 438 516 l 25
 402 789 l 25
 315 798 l 25
 315 645 l 25
 294 477 l 25
 276 357 l 25
 225 207 l 25
 174 78 l 25
 84 -48 l 25
 -16 -150 l 29
EndSplineSet
Validated: 9
EndChar

StartChar: x
Encoding: 120 120 23
Width: 1000
Flags: H
LayerCount: 2
Back
Fore
SplineSet
0 -180 m 1
 23 -201 l 1
 206 714 l 25
 251 426 l 25
 287 417 l 25
 359 702 l 25
 419 426 l 25
 461 411 l 25
 521 708 l 25
 578 417 l 25
 611 417 l 25
 662 786 l 25
 635 798 l 25
 596 504 l 25
 530 798 l 25
 497 792 l 25
 443 474 l 25
 371 801 l 25
 341 798 l 25
 275 480 l 1
 227 801 l 1
 200 798 l 1
 0 -180 l 1
EndSplineSet
Validated: 9
EndChar

StartChar: y
Encoding: 121 121 24
Width: 1000
Flags: H
LayerCount: 2
Back
Fore
SplineSet
-15 -183 m 29
 78 -195 l 25
 261 600 l 25
 402 -192 l 25
 483 -195 l 25
 672 594 l 25
 831 -195 l 25
 921 -198 l 25
 1083 588 l 25
 1227 -195 l 25
 1314 -189 l 25
 1479 789 l 25
 1386 798 l 25
 1269 42 l 25
 1122 804 l 25
 1035 801 l 25
 876 -21 l 25
 708 804 l 25
 630 795 l 25
 447 -18 l 25
 312 801 l 25
 228 795 l 25
 -15 -183 l 29
EndSplineSet
Validated: 9
EndChar

StartChar: z
Encoding: 122 122 25
Width: 1000
Flags: H
LayerCount: 2
Back
Fore
SplineSet
0 -189 m 1
 42 -198 l 1
 249 729 l 25
 297 612 l 25
 345 615 l 25
 390 729 l 25
 429 618 l 25
 480 615 l 25
 525 729 l 25
 561 615 l 25
 609 606 l 25
 666 780 l 25
 624 795 l 25
 582 669 l 25
 540 789 l 25
 507 795 l 25
 456 687 l 25
 411 795 l 25
 366 798 l 25
 324 684 l 25
 264 801 l 1
 213 804 l 1
 215.793945312 817.025390625 62.9661008957 104.546188698 0 -189 c 1
EndSplineSet
Validated: 41
EndChar

StartChar: braceleft
Encoding: 123 123 26
Width: 1000
Flags: H
LayerCount: 2
Back
Fore
SplineSet
0 -189 m 1
 30 -195 l 1
 246 732 l 25
 282 648 l 25
 321 639 l 25
 363 738 l 25
 381 648 l 25
 438 642 l 25
 468 732 l 25
 495 642 l 1
 549 645 l 1
 588 780 l 1
 564 798 l 1
 525 714 l 25
 492 795 l 25
 459 801 l 25
 408 699 l 25
 378 795 l 25
 333 798 l 25
 303 702 l 25
 261 798 l 1
 228 804 l 1
 0 -189 l 1
EndSplineSet
Validated: 9
EndChar

StartChar: bar
Encoding: 124 124 27
Width: 1000
Flags: H
LayerCount: 2
Back
Fore
SplineSet
-6 -186 m 25
 30 -195 l 25
 255 747 l 25
 288 651 l 1
 342 651 l 1
 363 753 l 1
 387 651 l 5
 432 648 l 1
 468 744 l 25
 501 642 l 25
 546 639 l 25
 603 786 l 25
 555 807 l 25
 519 708 l 25
 483 798 l 25
 456 798 l 25
 411 705 l 25
 381 801 l 25
 336 801 l 25
 306 714 l 25
 252 798 l 25
 225 798 l 25
 -6 -186 l 25
EndSplineSet
Validated: 9
EndChar

StartChar: braceright
Encoding: 125 125 28
Width: 1000
Flags: H
LayerCount: 2
Back
Fore
SplineSet
-18 162 m 25
 39 153 l 25
 129 672 l 25
 147 738 l 25
 171 747 l 25
 195 729 l 25
 207 699 l 25
 222 627 l 25
 246 513 l 25
 273 387 l 25
 315 69 l 25
 342 -198 l 25
 708 -201 l 1
 714 -152 l 1
 411 -164 l 1
 315 535 l 5
 262 706 l 1
 210 790 l 25
 174 808 l 25
 148 800 l 25
 120 778 l 25
 92 704 l 25
 68 628 l 25
 34 448 l 25
 14 326 l 25
 -18 162 l 25
EndSplineSet
Validated: 9
EndChar

StartChar: asciitilde
Encoding: 126 126 29
Width: 1000
Flags: H
LayerCount: 2
Back
Fore
SplineSet
0 -192 m 1
 30 -197 l 1
 144 568 l 1
 186 709 l 25
 213 754 l 25
 240 754 l 25
 261 718 l 25
 297 598 l 25
 336 409 l 25
 345 304 l 25
 402 301 l 25
 369 490 l 25
 327 661 l 25
 285 766 l 25
 261 793 l 25
 225 805 l 25
 183 781 l 25
 138 700 l 25
 78 475 l 25
 42 241 l 25
 12 -2 l 5
 0 -192 l 1
EndSplineSet
Validated: 9
EndChar

StartChar: uni007F
Encoding: 127 127 30
Width: 1000
Flags: H
LayerCount: 2
Back
Fore
SplineSet
-13 -195 m 1
 74 -198 l 1
 77 213 l 5
 530 519 l 1
 869 738 l 25
 830 816 l 25
 548 627 l 25
 -10 258 l 25
 -13 -195 l 1
EndSplineSet
Validated: 9
EndChar

StartChar: uni0080
Encoding: 128 128 31
Width: 1000
Flags: H
LayerCount: 2
Back
Fore
SplineSet
-13 -198 m 29
 44 -198 l 25
 44 138 l 25
 407 486 l 25
 698 765 l 25
 674 807 l 25
 305 471 l 25
 -7 180 l 25
 -13 -198 l 29
EndSplineSet
Validated: 9
EndChar

StartChar: A
Encoding: 65 65 32
Width: 1000
Flags: HW
LayerCount: 2
Fore
SplineSet
48 -186 m 1
 228 396 l 5
 254.486328125 494.881835938 321.69140625 745.780273438 318 732 c 13
 411 450 l 1
 459 459 l 25
 327 792 l 1
 273 795 l 1
 0 -177 l 1
 48 -186 l 1
EndSplineSet
Validated: 37
EndChar

StartChar: B
Encoding: 66 66 33
Width: 1000
Flags: HW
LayerCount: 2
Fore
SplineSet
0 759 m 1
 81 804 l 1
 321 -168 l 5
 255 -198 l 1
 0 759 l 1
EndSplineSet
Validated: 1
EndChar

StartChar: C
Encoding: 67 67 34
Width: 1000
Flags: HW
LayerCount: 2
Fore
SplineSet
341 786 m 1
 248 792 l 1
 -7 -174 l 1
 83 -180 l 5
 341 786 l 1
EndSplineSet
Validated: 9
EndChar

StartChar: uni0081
Encoding: 129 129 35
Width: 1000
Flags: H
LayerCount: 2
Back
Fore
SplineSet
-9 735 m 29
 102 705 l 25
 210 603 l 25
 306 471 l 25
 363 300 l 25
 414 81 l 25
 423 -192 l 25
 513 -195 l 25
 573 18 l 25
 633 246 l 25
 741 612 l 25
 807 315 l 25
 882 -21 l 25
 915 -195 l 25
 1008 -195 l 25
 1041 3 l 25
 1104 306 l 25
 1173 591 l 25
 1227 348 l 25
 1284 111 l 25
 1347 -189 l 25
 1443 -192 l 25
 1491 6 l 25
 1536 144 l 25
 1602 243 l 25
 1668 336 l 25
 1743 381 l 25
 1803 387 l 25
 1815 471 l 25
 1635 402 l 25
 1518 246 l 25
 1446 105 l 25
 1401 -12 l 25
 1356 147 l 25
 1311 351 l 25
 1233 642 l 25
 1206 801 l 25
 1122 795 l 25
 1068 450 l 25
 969 -27 l 25
 879 369 l 25
 783 801 l 25
 711 804 l 25
 594 396 l 25
 507 39 l 25
 432 342 l 25
 378 504 l 25
 270 639 l 25
 156 735 l 25
 39 801 l 25
 -9 735 l 29
EndSplineSet
EndChar
